<?xml version="1.0" encoding="iso-8859-1"?>
<!-- Generator: Adobe Illustrator 22.0.1, SVG Export Plug-In . SVG Version: 6.00 Build 0)  -->
<svg version="1.1" id="Layer_1" xmlns="http://www.w3.org/2000/svg" xmlns:xlink="http://www.w3.org/1999/xlink" x="0px" y="0px"
	 viewBox="0 0 500 198" style="enable-background:new 0 0 500 198;" xml:space="preserve">
<g>
	<g>
		<g>
			<path style="fill-rule:evenodd;clip-rule:evenodd;fill:#FFFFFF;" d="M288.239,97.949l44.29-2.581
				c0.938,6.712,2.898,11.851,5.837,15.372c4.776,5.714,11.646,8.542,20.551,8.542c6.63,0,11.752-1.443,15.348-4.365
				c3.579-2.922,5.386-6.302,5.386-10.138c0-3.649-1.689-6.911-5.127-9.809c-3.426-2.876-11.352-5.598-23.837-8.155
				c-20.399-4.306-34.961-9.974-43.662-17.096c-8.753-7.111-13.136-16.146-13.136-27.176c0-7.251,2.23-14.105,6.735-20.534
				c4.488-6.418,11.218-11.475,20.229-15.183c9-3.661,21.339-5.504,37.014-5.504c19.244,0,33.941,3.333,44.043,10.033
				c10.079,6.7,16.081,17.343,18.011,31.939l-43.849,2.383c-1.167-6.325-3.608-10.936-7.369-13.811
				c-3.707-2.876-8.883-4.306-15.424-4.306c-5.439,0-9.51,1.055-12.244,3.203c-2.717,2.135-4.096,4.764-4.096,7.839
				c0,2.241,1.115,4.247,3.368,6.031c2.206,1.889,7.392,3.59,15.635,5.198c20.341,4.095,34.89,8.261,43.674,12.45
				c8.806,4.201,15.224,9.364,19.22,15.606c4.013,6.208,6.031,13.154,6.031,20.863c0,9.011-2.698,17.342-8.02,24.969
				c-5.339,7.615-12.825,13.401-22.411,17.331c-9.558,3.919-21.684,5.902-36.252,5.902c-25.598,0-43.333-4.588-53.184-13.834
				C295.121,123.904,289.536,112.182,288.239,97.949"/>
			<path style="fill-rule:evenodd;clip-rule:evenodd;fill:#FFFFFF;" d="M469.99,27.991c-0.663-1.08-1.513-2.159-2.387-2.805
				c-0.417-0.434-0.851-0.868-1.714-1.091c2.153-0.423,3.661-1.068,4.735-2.147c0.874-1.08,1.525-2.371,1.525-3.884
				c0-1.056-0.435-2.383-1.086-3.227c-0.44-1.079-1.29-1.737-2.364-2.171c-1.097-0.434-2.382-0.434-4.312-0.434h-1.085h-8.624
				v21.566h2.793v-9.481h3.455c0.64,0,1.291,0,1.514,0c0.211,0,0.651,0.223,0.862,0.435c0.224,0,0.224,0,0.434,0.211
				c0.429,0.223,0.857,0.657,1.508,1.526c0.645,0.621,1.29,1.502,2.159,2.793l2.799,4.517h3.672L469.99,27.991z M463.736,21.737
				h-0.434h-5.832v-7.122h5.832h1.085c1.719,0,2.798,0.222,3.655,0.867c0.657,0.634,1.086,1.526,1.086,2.582
				c0,0.668-0.229,1.29-0.652,1.947c-0.434,0.646-0.874,1.08-1.725,1.303C466.107,21.515,465.022,21.737,463.736,21.737z"/>
			<path style="fill:#FFFFFF;" d="M463.232,41.392c-10.226,0-18.545-8.425-18.545-18.763c0-10.361,8.32-18.774,18.545-18.774
				c10.361,0,18.768,8.413,18.768,18.774C482,32.966,473.593,41.392,463.232,41.392z M463.232,6.436
				c-8.647,0-15.951,7.415-15.951,16.192c0,8.765,7.304,16.158,15.951,16.158c8.918,0,16.169-7.24,16.169-16.158
				C479.401,13.7,472.15,6.436,463.232,6.436z"/>
			<path style="fill-rule:evenodd;clip-rule:evenodd;fill:#FFFFFF;" d="M228.493,2.37h41.25v84.097
				c0,8.343-1.256,16.181-3.708,23.596c-2.452,7.404-6.324,13.893-11.576,19.443c-5.268,5.549-10.777,9.434-16.562,11.687
				c-8.031,3.122-17.647,4.705-28.918,4.705c-6.507,0-13.599-0.469-21.291-1.455c-7.68-0.938-14.098-2.863-19.262-5.702
				c-5.168-2.851-9.903-6.935-14.197-12.18c-4.289-5.257-7.229-10.679-8.807-16.252c-2.552-8.988-3.831-16.92-3.831-23.843V2.37
				h41.25v86.091c0,7.72,2.018,13.741,6.032,18.035c4.036,4.33,9.651,6.489,16.832,6.489c7.105,0,12.707-2.135,16.75-6.383
				c4.024-4.236,6.037-10.314,6.037-18.14V2.37z M41.491,61.462h17.425c1.889,0,5.515-0.622,10.924-1.889
				c2.734-0.598,4.987-2.053,6.73-4.435c1.701-2.37,2.599-5.104,2.599-8.178c0-4.541-1.379-8.037-4.113-10.479
				c-2.74-2.464-7.89-3.672-15.418-3.672H41.491V61.462z M0,145.371V4.342h68.854c12.749,0,22.529,1.138,29.253,3.474
				c6.763,2.311,12.197,6.582,16.345,12.848c4.136,6.243,6.184,13.846,6.184,22.823c0,7.837-1.578,14.572-4.718,20.24
				c-3.168,5.702-7.527,10.291-13.042,13.834c-3.555,2.218-8.378,4.096-14.509,5.551c4.91,1.748,8.489,3.485,10.777,5.221
				c1.485,1.15,3.691,3.614,6.589,7.381c2.898,3.814,4.829,6.711,5.791,8.778l19.982,40.88H84.818l-22.065-43.11
				c-2.799-5.551-5.298-9.199-7.504-10.878c-2.957-2.17-6.342-3.25-10.121-3.25h-3.638v57.238H0z"/>
		</g>
	</g>
	<g>
		<path style="fill:#FFFFFF;" d="M0.129,172.45h11.207c4.044,0,7.437,1.953,7.437,6.373c0,3.085-1.611,5.621-4.764,6.238v0.069
			c3.187,0.411,4.112,2.605,4.284,5.517c0.103,1.679,0.103,5.038,1.131,6.272h-2.571c-0.583-0.96-0.583-2.776-0.651-3.804
			c-0.206-3.428-0.48-7.232-4.9-7.06H2.46v10.864H0.129V172.45z M2.46,184.067h8.705c2.844,0,5.278-1.782,5.278-4.764
			s-1.782-4.867-5.278-4.867H2.46V184.067z"/>
		<path style="fill:#FFFFFF;" d="M24.868,172.45h2.331v24.469h-2.331V172.45z"/>
		<path style="fill:#FFFFFF;" d="M44.263,171.935c7.677,0,11.515,6.066,11.515,12.749c0,6.683-3.838,12.749-11.515,12.749
			c-7.711,0-11.549-6.066-11.549-12.749C32.714,178.001,36.552,171.935,44.263,171.935z M44.263,195.445
			c6.443,0,9.184-5.415,9.184-10.761c0-5.346-2.742-10.761-9.184-10.761c-6.477,0-9.219,5.416-9.219,10.761
			C35.044,190.03,37.786,195.445,44.263,195.445z"/>
		<path style="fill:#FFFFFF;" d="M72.119,172.45h2.33v15.147c-0.034,5.69,2.673,7.849,7.163,7.849c4.523,0,7.232-2.159,7.197-7.849
			V172.45h2.331v15.662c0,5.037-2.709,9.321-9.528,9.321c-6.785,0-9.493-4.284-9.493-9.321V172.45z"/>
		<path style="fill:#FFFFFF;" d="M97.543,172.45h11.206c4.045,0,7.437,1.953,7.437,6.373c0,3.085-1.611,5.621-4.764,6.238v0.069
			c3.187,0.411,4.112,2.605,4.284,5.517c0.103,1.679,0.103,5.038,1.131,6.272h-2.571c-0.582-0.96-0.582-2.776-0.651-3.804
			c-0.206-3.428-0.48-7.232-4.9-7.06h-8.842v10.864h-2.33V172.45z M99.873,184.067h8.704c2.845,0,5.278-1.782,5.278-4.764
			s-1.782-4.867-5.278-4.867h-8.704V184.067z"/>
		<path style="fill:#FFFFFF;" d="M121.869,172.45h2.331v15.147c-0.035,5.69,2.673,7.849,7.163,7.849
			c4.524,0,7.231-2.159,7.197-7.849V172.45h2.33v15.662c0,5.037-2.707,9.321-9.527,9.321c-6.787,0-9.494-4.284-9.494-9.321V172.45z"
			/>
		<path style="fill:#FFFFFF;" d="M168.199,196.919h-1.679l-0.308-4.456h-0.069c-1.645,3.495-4.936,4.969-8.465,4.969
			c-7.711,0-11.549-6.066-11.549-12.749c0-6.683,3.839-12.749,11.549-12.749c5.14,0,9.321,2.776,10.212,8.123h-2.33
			c-0.308-2.81-3.221-6.135-7.882-6.135c-6.477,0-9.219,5.416-9.219,10.761c0,5.346,2.742,10.761,9.219,10.761
			c5.414,0,8.568-3.804,8.465-8.979h-8.328v-1.988h10.384V196.919z"/>
		<path style="fill:#FFFFFF;" d="M174.158,172.45h2.331v15.147c-0.035,5.69,2.673,7.849,7.163,7.849
			c4.523,0,7.231-2.159,7.197-7.849V172.45h2.33v15.662c0,5.037-2.707,9.321-9.527,9.321c-6.785,0-9.494-4.284-9.494-9.321V172.45z"
			/>
		<path style="fill:#FFFFFF;" d="M206.746,172.45h2.605l9.595,24.469h-2.501l-2.982-7.608h-11.138l-2.946,7.608h-2.502
			L206.746,172.45z M203.044,187.323h9.63l-4.729-12.543L203.044,187.323z"/>
		<path style="fill:#FFFFFF;" d="M227.167,186.843l-9.629-14.394h2.775l8.054,12.406l8.02-12.406h2.775l-9.664,14.394v10.076h-2.331
			V186.843z"/>
		<path style="fill:#FFFFFF;" d="M255.331,188.865c-0.103,5.038,3.53,6.58,7.985,6.58c2.57,0,6.477-1.405,6.477-4.97
			c0-2.775-2.776-3.872-5.038-4.42l-5.448-1.336c-2.879-0.72-5.518-2.091-5.518-5.896c0-2.399,1.543-6.888,8.431-6.888
			c4.832,0,9.082,2.605,9.048,7.609h-2.331c-0.137-3.737-3.221-5.621-6.683-5.621c-3.187,0-6.134,1.234-6.134,4.866
			c0,2.296,1.713,3.256,3.701,3.736l5.963,1.473c3.461,0.926,6.339,2.434,6.339,6.443c0,1.679-0.686,6.991-9.356,6.991
			c-5.792,0-10.04-2.604-9.767-8.568H255.331z"/>
		<path style="fill:#FFFFFF;" d="M277.534,172.45h16.895v1.987h-14.565v8.842h13.64v1.988h-13.64v9.664h14.737v1.988h-17.067V172.45
			z"/>
		<path style="fill:#FFFFFF;" d="M320.47,196.919h-1.678l-0.31-4.456h-0.068c-1.646,3.495-4.936,4.969-8.465,4.969
			c-7.711,0-11.549-6.066-11.549-12.749c0-6.683,3.839-12.749,11.549-12.749c5.14,0,9.321,2.776,10.212,8.123h-2.33
			c-0.308-2.81-3.221-6.135-7.882-6.135c-6.477,0-9.219,5.416-9.219,10.761c0,5.346,2.742,10.761,9.219,10.761
			c5.415,0,8.568-3.804,8.465-8.979h-8.329v-1.988h10.384V196.919z"/>
		<path style="fill:#FFFFFF;" d="M326.428,172.45h2.331v15.147c-0.035,5.69,2.673,7.849,7.163,7.849
			c4.523,0,7.231-2.159,7.197-7.849V172.45h2.33v15.662c0,5.037-2.707,9.321-9.527,9.321c-6.787,0-9.494-4.284-9.494-9.321V172.45z"
			/>
		<path style="fill:#FFFFFF;" d="M351.854,172.45h11.206c4.044,0,7.437,1.953,7.437,6.373c0,3.085-1.611,5.621-4.764,6.238v0.069
			c3.187,0.411,4.112,2.605,4.284,5.517c0.103,1.679,0.103,5.038,1.131,6.272h-2.57c-0.583-0.96-0.583-2.776-0.652-3.804
			c-0.206-3.428-0.48-7.232-4.9-7.06h-8.842v10.864h-2.33V172.45z M354.183,184.067h8.704c2.845,0,5.278-1.782,5.278-4.764
			s-1.781-4.867-5.278-4.867h-8.704V184.067z"/>
		<path style="fill:#FFFFFF;" d="M386.667,171.935c7.677,0,11.515,6.066,11.515,12.749c0,6.683-3.838,12.749-11.515,12.749
			c-7.711,0-11.549-6.066-11.549-12.749C375.118,178.001,378.956,171.935,386.667,171.935z M386.667,195.445
			c6.442,0,9.184-5.415,9.184-10.761c0-5.346-2.742-10.761-9.184-10.761c-6.477,0-9.219,5.416-9.219,10.761
			C377.448,190.03,380.19,195.445,386.667,195.445z"/>
		<path style="fill:#FFFFFF;" d="M404.621,188.865c-0.103,5.038,3.529,6.58,7.985,6.58c2.571,0,6.477-1.405,6.477-4.97
			c0-2.775-2.776-3.872-5.038-4.42l-5.448-1.336c-2.879-0.72-5.518-2.091-5.518-5.896c0-2.399,1.543-6.888,8.431-6.888
			c4.832,0,9.082,2.605,9.048,7.609h-2.331c-0.137-3.737-3.221-5.621-6.683-5.621c-3.187,0-6.134,1.234-6.134,4.866
			c0,2.296,1.713,3.256,3.701,3.736l5.964,1.473c3.46,0.926,6.339,2.434,6.339,6.443c0,1.679-0.686,6.991-9.356,6.991
			c-5.792,0-10.041-2.604-9.768-8.568H404.621z"/>
	</g>
</g>
</svg>
